<?xml version="1.0"?>
<svg xmlns="http://www.w3.org/2000/svg" height="512px" viewBox="0 0 480 480" width="512px" class=""><g transform="matrix(0.747172, 0, 0, 0.747172, 60.6786, 60.6786)"><path d="m288 432h144l32-288h-304l8.886719 80" fill="#857970" data-original="#857970" class="" style="fill:#00500A" data-old_color="#00500a"/><path d="m256 400h179.550781l-3.550781 32h-176zm0 0" fill="#b8cbd9" data-original="#B8CBD9" class=""/><path d="m452.449219 248h-84.449219v64h77.335938zm0 0" fill="#c18e59" data-original="#C18E59" class="" style="fill:#F9BC7B" data-old_color="#f9bc7b"/><path d="m384 280c0 39.765625-32.234375 72-72 72s-72-32.234375-72-72 32.234375-72 72-72 72 32.234375 72 72zm0 0" fill="#4472b2" data-original="#4472B2" class=""/><path d="m352 280c0 22.089844-17.910156 40-40 40s-40-17.910156-40-40 17.910156-40 40-40 40 17.910156 40 40zm0 0" fill="#fff" data-original="#FFF" class=""/><path d="m248 432h152v48h-152zm0 0" fill="#695b52" data-original="#695B52" class=""/><path d="m224 224h-144c-35.34375 0-64 28.65625-64 64v16h272v-16c0-35.34375-28.65625-64-64-64zm0 0" fill="#c18e59" data-original="#C18E59" class="" style="fill:#F9BC7B" data-old_color="#f9bc7b"/><path d="m88 160h16v64h-16zm0 0" fill="#976947" data-original="#976947" class=""/><path d="m460.449219 176 3.550781-32h-304l3.550781 32zm0 0" fill="#e8eff4" data-original="#E8EFF4" class=""/><path d="m432 96h-240c-26.511719 0-48 21.488281-48 48h336c0-26.511719-21.488281-48-48-48zm0 0" fill="#b8cbd9" data-original="#B8CBD9" class=""/><path d="m432 96c0-53.015625-42.984375-96-96-96h-48c-53.015625 0-96 42.984375-96 96" fill="#857970" data-original="#857970" class="" style="fill:#00500A" data-old_color="#00500a"/><path d="m32 304h240v112h-240zm0 0" fill="#7ecb92" data-original="#7ECB92" class=""/><path d="m160 384h120c13.257812 0 24-10.742188 24-24s-10.742188-24-24-24h-256c-13.257812 0-24 10.742188-24 24s10.742188 24 24 24h40" fill="#e4725f" data-original="#E4725F" class="" style="fill:#702C23" data-old_color="#702c23"/><path d="m88 416h-72v32c0 17.671875 14.328125 32 32 32h208c17.671875 0 32-14.328125 32-32v-32h-152" fill="#c18e59" data-original="#C18E59" class="" style="fill:#F9BC7B" data-old_color="#f9bc7b"/><path d="m192 336-80 112-80-112" fill="#f0d365" data-original="#F0D365" class=""/><path d="m104 176-96-32 96-32zm0 0" fill="#e4725f" data-original="#E4725F" class="" style="fill:#702C23" data-old_color="#702c23"/><g fill="#976947"><path d="m40 264h16v16h-16zm0 0" data-original="#000000" class="active-path" style="fill:#000000"/><path d="m72 264h16v16h-16zm0 0" data-original="#000000" class="active-path" style="fill:#000000"/><path d="m104 264h16v16h-16zm0 0" data-original="#000000" class="active-path" style="fill:#000000"/><path d="m136 248h16v16h-16zm0 0" data-original="#000000" class="active-path" style="fill:#000000"/><path d="m248 264h16v16h-16zm0 0" data-original="#000000" class="active-path" style="fill:#000000"/><path d="m216 248h16v16h-16zm0 0" data-original="#000000" class="active-path" style="fill:#000000"/><path d="m184 264h16v16h-16zm0 0" data-original="#000000" class="active-path" style="fill:#000000"/></g><path d="m408 96h-16c0-30.871094-25.121094-56-56-56v-16c39.695312 0 72 32.296875 72 72zm0 0" fill="#e8eff4" data-original="#E8EFF4" class=""/><path d="m32 384h240v32h-240zm0 0" fill="#976947" data-original="#976947" class=""/></g> </svg>
