<svg width="205" height="43.521640118315794" viewBox="0 -5 205 43.521640118315794" class="css-1j8o68f"><defs id="SvgjsDefs2404"></defs><g id="SvgjsG2405" featurekey="v37d4h-0" transform="matrix(0.7388802766799927,0,0,0.7388802766799927,20.134847550904254,-19.31598284074546)" fill="#fefefe"><ellipse xmlns="http://www.w3.org/2000/svg" fill="#fefefe" cx="39.516" cy="45.69" rx="6.934" ry="5.558"></ellipse><path xmlns="http://www.w3.org/2000/svg" fill="#fefefe" d="M34.942,49.737c0,0-4.527,11.755-4.79,12.976c-0.262,1.22-0.479,2.395-0.174,2.482  c0.305,0.086,1.305-1.348,2.002-3.527c0.697-2.177,3.485-11.977,3.528-12.15C35.552,49.345,34.942,49.737,34.942,49.737z"></path><path xmlns="http://www.w3.org/2000/svg" fill="#fefefe" d="M36.379,50.435c0,0-0.435,7.534-0.391,8.013c0.043,0.478-3.658,9.275-3.702,10.234  c-0.043,0.957-0.348,2.133-0.087,2.176c0.261,0.043,1.35-1.393,1.83-3.047c0.478-1.654,2.525-8.709,2.569-8.971  c0.044-0.262,1.785-2.35,1.916-7.969C38.645,45.252,36.379,50.435,36.379,50.435z"></path><path xmlns="http://www.w3.org/2000/svg" fill="#fefefe" d="M53.104,67.072c-0.722-2.133-4.698-10.124-5.662-11.773c0.36-0.235,0.214-0.68,0.046-0.856  c-1.274-1.336-4.138-3.187-6.056-3.971c-1.915-0.786-2.09,0.651-2.09,0.651s-0.276,1.105,1.003,2.134  c0.217,0.175,1.523,6.228,2.351,8.057c0.521,1.148,1.612,3.224,2.136,3.048c0.519-0.174,0.347-2.179-2.702-9.668  c-0.265-0.652,0.349-0.391,0.349-0.391s1.761,0.625,3.066,0.959c0.547,0.139,0.941,0.184,1.253,0.179  c0.154,1.099,0.989,5.474,5.153,13.335c0.428,0.803,0.911,1.668,1.367,1.547C53.773,70.199,53.896,69.41,53.104,67.072z"></path><path xmlns="http://www.w3.org/2000/svg" fill="#fefefe" d="M58.973,37.043c-1.63-3.776-10.233-6.677-13.552-1.697c-0.267,0.398-0.948,1.423-1.068,2.488  c-0.129,1.173,2.528,6.915,12.21,4.11C59.795,41.007,59.765,38.88,58.973,37.043z M51.268,38.072c-0.98,0-1.778-0.566-1.778-1.266  c0-0.697,0.798-1.263,1.778-1.263c0.982,0,1.778,0.565,1.778,1.263C53.046,37.505,52.25,38.072,51.268,38.072z"></path><path xmlns="http://www.w3.org/2000/svg" fill="#fefefe" d="M58.328,34.374c0.333-0.122,1.428-1.759,2.488-2.369c1.642-0.941,4.762-1.708,6.407-1.792  c1.822-0.091,4.799-0.182,7.501-1.669c1.189-0.655,2.948-1.266,4.008-1.002c1.059,0.264,1.911,1.123,2.247,0.759  c0.394-0.425-2.021-2.427-4.494-1.761c-2.479,0.669-4.555,2.157-7.651,2.399c-3.07,0.241-4.397,0.342-6.514,0.864  c-3.265,0.805-3.969,2.192-4.325,3.507C57.812,33.979,57.918,34.522,58.328,34.374z"></path><path xmlns="http://www.w3.org/2000/svg" fill="#fefefe" d="M56.36,33.654c0.268-0.227,0.977-2.151,1.754-3.077c1.199-1.426,3.28-2.944,4.891-3.794  c1.589-0.84,4.949-2.308,6.74-4.099c0.948-0.948,1.936-2.01,3.005-2.126c1.07-0.116,2.482-0.097,2.672-0.546  c0.22-0.528-2.853-1.222-4.912,0.233c-2.07,1.459-1.464,2.742-6.27,4.815c-2.787,1.203-3.953,1.808-5.733,3.01  c-2.746,1.851-2.932,3.374-2.817,4.712C55.75,33.464,56.033,33.931,56.36,33.654z"></path><path xmlns="http://www.w3.org/2000/svg" fill="#fefefe" d="M31.767,47.297c-1.161-3.986-7.698-5.594-14.603-3.584c-6.907,2.009-11.563,6.871-10.402,10.857  c0.387,1.331,1.382,2.39,2.781,3.145l-1.067,3.08c0,0-0.165,8.004-0.134,8.826c0.036,0.924,0.224,1.912,0.512,1.889  c0.54-0.043,0.888-1.818,0.877-3.217c-0.012-1.396,0.211-6.789,0.211-6.789l1.308-3.083c1.316,0.406,2.842,0.608,4.491,0.589  l0.113,0.369c0,0-1.145,6.711-1.222,7.404c-0.086,0.783-0.054,1.637,0.188,1.654c0.455,0.033,0.967-1.414,1.133-2.59  c0.166-1.18,1.03-5.684,1.03-5.684l-0.116-1.201c1.445-0.103,2.959-0.361,4.496-0.809C28.27,56.147,32.925,51.286,31.767,47.297z"></path></g><g id="SvgjsG2406" featurekey="UxBHKT-0" transform="matrix(2.1269631385803223,0,0,2.1269631385803223,73.63874329354157,-6.826569995634818)" fill="#fefefe"><path d="M4.88 20 l-3 0 l0 -8.26 l-1.24 0 l0 -2.56 l1.24 0 q0.08 -2.14 1.22 -3.26 t3.16 -1.12 q0.6 0 1.32 0.18 l-0.16 2.42 q-0.38 -0.12 -0.82 -0.12 q-1.08 0 -1.4 0.54 t-0.32 1.36 l1.98 0 l0 2.56 l-1.98 0 l0 8.26 z M11.98 7.369999999999999 q-0.48 0.47 -1.16 0.47 q-0.7 0 -1.19 -0.47 t-0.49 -1.15 q0 -0.66 0.49 -1.13 t1.19 -0.47 q0.68 0 1.16 0.47 t0.48 1.13 q0 0.68 -0.48 1.15 z M9.32 9.02 l3 0 l0 10.98 l-3 0 l0 -10.98 z M24.490000000000002 10.02 q1.03 1.22 1.03 3.48 l0 6.5 l-3.06 0 l0 -6.5 q0 -2.22 -2.12 -2.22 q-0.82 0 -1.48 0.65 t-0.62 2.25 l0 5.82 l-2.98 0 l0 -11 l2.98 0 l0 0.98 q0.54 -0.54 1.36 -0.86 t1.58 -0.32 q2.28 0 3.31 1.22 z M36.78 18.9 q-0.38 0.52 -1.31 0.93 t-2.03 0.41 q-1.7 0 -2.95 -0.76 t-1.91 -2.07 t-0.66 -2.91 t0.66 -2.91 t1.91 -2.07 t2.95 -0.76 q1.14 0 2.01 0.39 t1.33 0.99 l0 -1.14 l2.96 0 l0 11 l-2.96 0 l0 -1.1 z M36.08 12.25 q-0.82 -0.87 -2.2 -0.87 q-1.4 0 -2.21 0.87 t-0.81 2.25 q0 1.34 0.83 2.22 t2.19 0.88 q1.4 0 2.21 -0.83 t0.81 -2.27 q0 -1.38 -0.82 -2.25 z M51.91 10.02 q1.03 1.22 1.03 3.48 l0 6.5 l-3.06 0 l0 -6.5 q0 -2.22 -2.12 -2.22 q-0.82 0 -1.48 0.65 t-0.62 2.25 l0 5.82 l-2.98 0 l0 -11 l2.98 0 l0 0.98 q0.54 -0.54 1.36 -0.86 t1.58 -0.32 q2.28 0 3.31 1.22 z M59.56 16.08 q0 0.7 0.24 1.17 t1.12 0.47 q0.4 0 0.76 -0.04 l0 2.52 q-0.72 0.08 -1.34 0.08 q-1.28 0 -2.07 -0.21 t-1.23 -0.81 t-0.44 -1.72 l0 -6.1 l-1.34 0 l0 -2.62 l1.34 0 l0 -2.94 l2.96 0 l0 2.94 l2.2 0 l0 2.62 l-2.2 0 l0 4.64 z"></path></g></svg>
